<?xml version="1.0" encoding="UTF-8"?>
<svg id="Layer_1" xmlns="http://www.w3.org/2000/svg" version="1.1" viewBox="0 0 792 612">
  
  <defs>
    
  </defs>
  <g>
    <path class="st0" d="M229.2,271.6h-13.7v-3.6h31.6v3.6h-13.7v35.5h-4.1v-35.5Z"></path>
    <path class="st0" d="M300.4,307.1l-8.9-12.6c-1,.1-2,.2-3.1.2h-10.5v12.4h-4.1v-39.1h14.6c9.9,0,16,5,16,13.4s-3.2,10.4-8.9,12.3l9.5,13.4h-4.5ZM300.1,281.4c0-6.2-4.1-9.8-11.9-9.8h-10.4v19.6h10.4c7.8,0,11.9-3.6,11.9-9.8Z"></path>
    <path class="st0" d="M333.8,290.4v-22.4h4.1v22.2c0,9.3,4.4,13.5,11.9,13.5s12-4.2,12-13.5v-22.2h4v22.4c0,11.2-6,17-16,17s-16.1-5.8-16.1-17Z"></path>
    <path class="st0" d="M426,303.5v3.6h-27.6v-39.1h26.8v3.6h-22.7v13.9h20.2v3.5h-20.2v14.5h23.5Z"></path>
    <path class="st0" d="M486.4,281.4c0,8.3-6,13.3-16,13.3h-10.5v12.3h-4.1v-39.1h14.6c9.9,0,16,5,16,13.4ZM482.3,281.4c0-6.2-4.1-9.8-11.9-9.8h-10.4v19.5h10.4c7.8,0,11.9-3.6,11.9-9.7Z"></path>
    <path class="st0" d="M512.5,287.5c0-11.4,8.7-19.9,20.5-19.9s20.5,8.4,20.5,19.9-8.8,19.9-20.5,19.9-20.5-8.5-20.5-19.9ZM549.4,287.5c0-9.3-7-16.2-16.3-16.2s-16.5,6.9-16.5,16.2,7,16.2,16.5,16.2,16.3-6.9,16.3-16.2Z"></path>
    <path class="st0" d="M582.9,268h4.1v39.1h-4.1v-39.1Z"></path>
    <path class="st0" d="M652.4,268v39.1h-3.4l-25.1-31.7v31.7h-4.1v-39.1h3.4l25.2,31.7v-31.7h4.1Z"></path>
    <path class="st0" d="M692.8,271.6h-13.7v-3.6h31.6v3.6h-13.7v35.5h-4.1v-35.5Z"></path>
  </g>
  <g>
    <path class="st1" d="M241.1,334.8c0,3.3-2.4,5.3-6.4,5.3h-4.5v5.2h-1.1v-15.8h5.7c4,0,6.4,2,6.4,5.3ZM240,334.8c0-2.7-1.8-4.3-5.2-4.3h-4.5v8.5h4.5c3.4,0,5.2-1.6,5.2-4.3Z"></path>
    <path class="st1" d="M266.3,344.2v1h-10.9v-15.8h10.5v1h-9.4v6.2h8.4v1h-8.4v6.5h9.7Z"></path>
    <path class="st1" d="M279.2,337.3c0-4.6,3.5-8,8.2-8s8.2,3.4,8.2,8-3.5,8-8.2,8-8.2-3.4-8.2-8ZM294.5,337.3c0-4-3-6.9-7-6.9s-7.1,3-7.1,6.9,3,6.9,7.1,6.9,7-3,7-6.9Z"></path>
    <path class="st1" d="M322,334.8c0,3.3-2.4,5.3-6.4,5.3h-4.5v5.2h-1.1v-15.8h5.7c4,0,6.4,2,6.4,5.3ZM320.8,334.8c0-2.7-1.8-4.3-5.2-4.3h-4.5v8.5h4.5c3.4,0,5.2-1.6,5.2-4.3Z"></path>
    <path class="st1" d="M336.2,329.4h1.1v14.7h9.1v1h-10.2v-15.8Z"></path>
    <path class="st1" d="M370.7,344.2v1h-10.9v-15.8h10.5v1h-9.4v6.2h8.4v1h-8.4v6.5h9.7Z"></path>
    <path class="st1" d="M399.8,343.2l.5-.9c1.1,1.1,3.1,2,5.2,2,3.2,0,4.6-1.4,4.6-3.1,0-4.7-9.8-1.9-9.8-7.7s1.7-4.2,5.6-4.2,3.5.5,4.8,1.4l-.4.9c-1.3-.9-2.9-1.3-4.3-1.3-3.1,0-4.4,1.4-4.4,3.2,0,4.7,9.9,1.9,9.9,7.7s-1.8,4.2-5.7,4.2-4.6-.9-5.7-2.1Z"></path>
    <path class="st1" d="M424,337.3c0-4.6,3.5-8,8.2-8s8.2,3.4,8.2,8-3.5,8-8.2,8-8.2-3.4-8.2-8ZM439.2,337.3c0-4-3-6.9-7-6.9s-7.1,3-7.1,6.9,3,6.9,7.1,6.9,7-3,7-6.9Z"></path>
    <path class="st1" d="M454.7,329.4h1.1v14.7h9.1v1h-10.2v-15.8Z"></path>
    <path class="st1" d="M477.8,338.5v-9.1h1.1v9c0,3.9,1.9,5.8,5.2,5.8s5.2-1.8,5.2-5.8v-9h1.1v9.1c0,4.5-2.4,6.8-6.3,6.8s-6.3-2.3-6.3-6.8Z"></path>
    <path class="st1" d="M508.9,330.5h-5.7v-1h12.5v1h-5.7v14.7h-1.1v-14.7Z"></path>
    <path class="st1" d="M528.9,329.4h1.1v15.8h-1.1v-15.8Z"></path>
    <path class="st1" d="M544.4,337.3c0-4.6,3.5-8,8.2-8s8.2,3.4,8.2,8-3.5,8-8.2,8-8.2-3.4-8.2-8ZM559.7,337.3c0-4-3-6.9-7-6.9s-7.1,3-7.1,6.9,3,6.9,7.1,6.9,7-3,7-6.9Z"></path>
    <path class="st1" d="M588,329.4v15.8h-.9l-10.8-13.7v13.7h-1.1v-15.8h1l10.7,13.7v-13.7h1.1Z"></path>
    <path class="st1" d="M602.3,343.2l.5-.9c1.1,1.1,3.1,2,5.2,2,3.2,0,4.6-1.4,4.6-3.1,0-4.7-9.8-1.9-9.8-7.7s1.7-4.2,5.6-4.2,3.5.5,4.8,1.4l-.4.9c-1.3-.9-2.9-1.3-4.3-1.3-3.1,0-4.4,1.4-4.4,3.2,0,4.7,9.8,1.9,9.8,7.7s-1.8,4.2-5.7,4.2-4.6-.9-5.7-2.1Z"></path>
  </g>
  <path class="st1" d="M153.9,268.8h-72.6s17.7,7.7,17.7,7.7c4.8,1.7,8.3,5.4,8.3,9v46.3c0,7,6,12.6,13,12.6v-59.1c0-3.3,2.6-5.9,5.9-5.9h25c7.8,0,14.1,6.3,14.1,14.1v6.6c0,7.3-5.9,13.3-13.3,13.3h-17c-1.8,0-3.3,1.5-3.3,3.3v27.8l5.6-13.8c1.4-3.4,4.7-5.6,8.4-5.6h8.4c13.2,0,23.9-10.7,23.9-23.9v-8.2c0-13.3-10.8-24.1-24.1-24.1Z"></path>
</svg>