<?xml version="1.0" encoding="UTF-8"?>
<svg id="Layer_1" xmlns="http://www.w3.org/2000/svg" version="1.1" viewBox="0 0 792 792">
  
  <defs></defs>
  <path class="st0" d="M582.3,105.1H23.7s135.9,59.2,135.9,59.2c36.9,13.2,64.3,41.9,64.3,69.7v356.8c0,53.5,46.5,96.9,100.1,96.9V232.3c0-25.1,20.4-45.5,45.5-45.5h192.5c59.8,0,108.4,48.5,108.4,108.4v50.6c0,56.5-45.8,102.3-102.3,102.3h-131.2c-13.9,0-25.2,11.3-25.2,25.2v214.4l43-106.6c10.6-26.3,36.1-43.5,64.4-43.5h64.9c101.6,0,184-82.4,184-184v-62.9c0-102.5-83.1-185.6-185.6-185.6Z"></path>
</svg>