<?xml version="1.0" encoding="UTF-8"?>
<svg id="Layer_1" xmlns="http://www.w3.org/2000/svg" version="1.1" viewBox="0 0 792 612">
  <!-- Generator: Adobe Illustrator 30.2.1, SVG Export Plug-In . SVG Version: 2.1.1 Build 1)  -->
  <defs>
    <style>
      .st0 {
        fill: #231f20;
      }

      .st1 {
        fill: #1b2b4a;
      }
    </style>
  </defs>
  <path class="st0" d="M119.2,346.9h-16.2v-4.2h37.4v4.2h-16.2v42h-4.9v-42Z"/>
  <path class="st0" d="M203.5,388.9l-10.6-14.9c-1.2.1-2.4.2-3.7.2h-12.4v14.7h-4.9v-46.2h17.3c11.8,0,18.9,5.9,18.9,15.8s-3.8,12.3-10.6,14.5l11.3,15.8h-5.3ZM203.2,358.5c0-7.4-4.9-11.6-14.1-11.6h-12.3v23.2h12.3c9.2,0,14.1-4.3,14.1-11.6Z"/>
  <path class="st0" d="M243,369.1v-26.5h4.9v26.3c0,11,5.2,16,14.1,16s14.2-5,14.2-16v-26.3h4.8v26.5c0,13.3-7.1,20.1-18.9,20.1s-19-6.9-19-20.1Z"/>
  <path class="st0" d="M352.2,384.7v4.2h-32.7v-46.2h31.7v4.2h-26.8v16.4h23.9v4.2h-23.9v17.2h27.8Z"/>
  <path class="st0" d="M423.6,358.5c0,9.8-7.1,15.8-18.9,15.8h-12.4v14.6h-4.9v-46.2h17.3c11.8,0,18.9,5.9,18.9,15.8ZM418.7,358.5c0-7.4-4.9-11.6-14.1-11.6h-12.3v23.1h12.3c9.2,0,14.1-4.2,14.1-11.5Z"/>
  <path class="st0" d="M454.5,365.8c0-13.5,10.3-23.5,24.3-23.5s24.2,10,24.2,23.5-10.4,23.5-24.2,23.5-24.3-10-24.3-23.5ZM498.1,365.8c0-11-8.3-19.1-19.3-19.1s-19.5,8.1-19.5,19.1,8.3,19.1,19.5,19.1,19.3-8.1,19.3-19.1Z"/>
  <path class="st0" d="M537.7,342.7h4.9v46.2h-4.9v-46.2Z"/>
  <path class="st0" d="M620.1,342.7v46.2h-4l-29.7-37.5v37.5h-4.9v-46.2h4l29.8,37.5v-37.5h4.8Z"/>
  <path class="st0" d="M667.9,346.9h-16.2v-4.2h37.4v4.2h-16.2v42h-4.9v-42Z"/>
  <path class="st1" d="M183.6,421.7c0,3.9-2.8,6.3-7.5,6.3h-5.3v6.1h-1.4v-18.7h6.7c4.7,0,7.5,2.3,7.5,6.3ZM182.3,421.7c0-3.2-2.1-5.1-6.1-5.1h-5.3v10.1h5.3c4,0,6.1-1.8,6.1-5Z"/>
  <path class="st1" d="M213.4,432.8v1.2h-12.9v-18.7h12.5v1.2h-11.1v7.4h9.9v1.2h-9.9v7.7h11.5Z"/>
  <path class="st1" d="M228.7,424.7c0-5.4,4.1-9.5,9.7-9.5s9.7,4,9.7,9.5-4.2,9.5-9.7,9.5-9.7-4.1-9.7-9.5ZM246.7,424.7c0-4.7-3.6-8.2-8.3-8.2s-8.3,3.5-8.3,8.2,3.6,8.2,8.3,8.2,8.3-3.5,8.3-8.2Z"/>
  <path class="st1" d="M279.3,421.7c0,3.9-2.8,6.3-7.5,6.3h-5.3v6.1h-1.4v-18.7h6.7c4.7,0,7.5,2.3,7.5,6.3ZM277.9,421.7c0-3.2-2.1-5.1-6.1-5.1h-5.3v10.1h5.3c4,0,6.1-1.8,6.1-5Z"/>
  <path class="st1" d="M296.2,415.4h1.4v17.4h10.7v1.2h-12.1v-18.7Z"/>
  <path class="st1" d="M336.9,432.8v1.2h-12.9v-18.7h12.5v1.2h-11.1v7.4h9.9v1.2h-9.9v7.7h11.5Z"/>
  <path class="st1" d="M371.3,431.6l.6-1c1.3,1.3,3.7,2.3,6.2,2.3,3.7,0,5.4-1.6,5.4-3.7,0-5.6-11.7-2.2-11.7-9.1s2-5,6.6-5,4.2.6,5.6,1.7l-.5,1.1c-1.5-1.1-3.4-1.6-5.1-1.6-3.6,0-5.3,1.7-5.3,3.7,0,5.6,11.7,2.3,11.7,9.1s-2.1,4.9-6.7,4.9-5.4-1-6.8-2.5Z"/>
  <path class="st1" d="M399.9,424.7c0-5.4,4.1-9.5,9.7-9.5s9.7,4,9.7,9.5-4.2,9.5-9.7,9.5-9.7-4.1-9.7-9.5ZM418,424.7c0-4.7-3.6-8.2-8.3-8.2s-8.3,3.5-8.3,8.2,3.6,8.2,8.3,8.2,8.3-3.5,8.3-8.2Z"/>
  <path class="st1" d="M436.3,415.4h1.4v17.4h10.7v1.2h-12.1v-18.7Z"/>
  <path class="st1" d="M463.7,426.1v-10.7h1.4v10.7c0,4.7,2.2,6.9,6.1,6.9s6.1-2.2,6.1-6.9v-10.7h1.4v10.7c0,5.3-2.9,8.1-7.5,8.1s-7.5-2.7-7.5-8.1Z"/>
  <path class="st1" d="M500.4,416.6h-6.7v-1.2h14.8v1.2h-6.7v17.4h-1.4v-17.4Z"/>
  <path class="st1" d="M524.1,415.4h1.4v18.7h-1.4v-18.7Z"/>
  <path class="st1" d="M542.5,424.7c0-5.4,4.1-9.5,9.7-9.5s9.7,4,9.7,9.5-4.2,9.5-9.7,9.5-9.7-4.1-9.7-9.5ZM560.5,424.7c0-4.7-3.6-8.2-8.3-8.2s-8.3,3.5-8.3,8.2,3.6,8.2,8.3,8.2,8.3-3.5,8.3-8.2Z"/>
  <path class="st1" d="M594.1,415.4v18.7h-1.1l-12.7-16.2v16.2h-1.4v-18.7h1.1l12.7,16.2v-16.2h1.4Z"/>
  <path class="st1" d="M610.9,431.6l.6-1c1.3,1.3,3.7,2.3,6.2,2.3,3.7,0,5.4-1.6,5.4-3.7,0-5.6-11.7-2.2-11.7-9.1s2-5,6.6-5,4.2.6,5.6,1.7l-.5,1.1c-1.5-1.1-3.4-1.6-5.1-1.6-3.6,0-5.3,1.7-5.3,3.7,0,5.6,11.7,2.3,11.7,9.1s-2.1,4.9-6.7,4.9-5.4-1-6.8-2.5Z"/>
  <path class="st1" d="M435.6,178.8h-118.5s28.8,12.6,28.8,12.6c7.8,2.8,13.6,8.9,13.6,14.8v75.7c0,11.3,9.9,20.5,21.2,20.5v-96.6c0-5.3,4.3-9.7,9.7-9.7h40.8c12.7,0,23,10.3,23,23v10.7c0,12-9.7,21.7-21.7,21.7h-27.8c-2.9,0-5.3,2.4-5.3,5.3v45.5l9.1-22.6c2.2-5.6,7.7-9.2,13.7-9.2h13.8c21.6,0,39-17.5,39-39v-13.3c0-21.7-17.6-39.4-39.4-39.4Z"/>
</svg>